<?xml version="1.0" encoding="utf-8"?>
<!-- Generator: Adobe Illustrator 25.4.1, SVG Export Plug-In . SVG Version: 6.00 Build 0)  -->
<svg version="1.1" id="Layer_1" xmlns="http://www.w3.org/2000/svg" xmlns:xlink="http://www.w3.org/1999/xlink" x="0px" y="0px"
	 viewBox="0 0 768 58" style="enable-background:new 0 0 768 58;" xml:space="preserve">
<path id="Bush_1_sx" d="M1.301,58h157.272c3.117-0.98,0.016-5.99-1.573-9c-5.431-6.399-11.801-10.828-19.601-8.562
	c-0.727,0.244-1.496-0.21-1.659-0.959c-1.326-8.635-9.741-9.479-17.238-8.955c-4.313,0.302-1.504-5.524-5.504-8.524
	c-9.258-6.942-18.215-8.044-27.013-2.662c-0.564,0.357-1.304,0.224-1.709-0.307C80.696,14.043,73.683,7.778,68.999,5
	c-13.962-8.464-37.592-6.725-47.382,7.182c-2.294,1.312-4.934-1.741-7.618-2.182c-3.325-1.332-6.517-2.351-10-2
	C3.083,8.171-0.184,7.378,0,9.301c-0.001,0-0.001,47.397-0.001,47.397C-0.001,57.417,0.582,58,1.301,58z"/>
</svg>
