<?xml version="1.0" encoding="utf-8"?>
<!-- Generator: Adobe Illustrator 25.4.1, SVG Export Plug-In . SVG Version: 6.00 Build 0)  -->
<svg version="1.1" id="Layer_1" xmlns="http://www.w3.org/2000/svg" xmlns:xlink="http://www.w3.org/1999/xlink" x="0px" y="0px"
	 viewBox="0 0 768 58" style="enable-background:new 0 0 768 58;" xml:space="preserve">
<style type="text/css">
	.st0{clip-path:url(#SVGID_00000100354575943684208030000003519524057497214628_);}
</style>
<g id="Bush_1_sx">
	<g>
		<defs>
			<path id="SVGID_1_" d="M1.301,58h157.272c3.117-0.98,0.016-5.99-1.573-9c-5.431-6.399-11.801-10.828-19.601-8.562
				c-0.727,0.244-1.496-0.21-1.659-0.959c-1.326-8.635-9.741-9.479-17.238-8.955c-4.313,0.302-1.504-5.524-5.504-8.524
				c-9.258-6.942-18.215-8.044-27.013-2.662c-0.564,0.357-1.304,0.224-1.709-0.307C80.696,14.043,73.683,7.778,68.999,5
				c-13.962-8.464-37.592-6.725-47.382,7.182c-2.294,1.312-4.934-1.741-7.618-2.182c-3.325-1.332-6.517-2.351-10-2
				C3.083,8.171-0.184,7.378,0,9.301c-0.001,0-0.001,47.397-0.001,47.397C-0.001,57.417,0.582,58,1.301,58z"/>
		</defs>
		<clipPath id="SVGID_00000102504904021468880240000002584074905410078088_">
			<use xlink:href="#SVGID_1_"  style="overflow:visible;"/>
		</clipPath>
		<g style="clip-path:url(#SVGID_00000102504904021468880240000002584074905410078088_);">
			<g>
				<defs>
					
						<rect id="SVGID_00000078018174087495258440000006289957068376519043_" x="-5.008" y="-5.134" width="169.919" height="68.134"/>
				</defs>
				<clipPath id="SVGID_00000017492997760877317530000017323017229098147770_">
					<use xlink:href="#SVGID_00000078018174087495258440000006289957068376519043_"  style="overflow:visible;"/>
				</clipPath>
				<g style="clip-path:url(#SVGID_00000017492997760877317530000017323017229098147770_);">
					
						<image style="overflow:visible;" width="355" height="143" xlink:href="659FF845994D8E19.jpg"  transform="matrix(0.48 0 0 0.48 -5.28 -5.28)">
					</image>
				</g>
			</g>
		</g>
	</g>
</g>
</svg>
