<svg id="Layer_1" data-name="Layer 1" xmlns="http://www.w3.org/2000/svg" viewBox="0 0 768 62"><path id="Bush_2_dx" data-name="Bush 2 dx" d="M630,62H768V0a46.1,46.1,0,0,0-13,1,21.287,21.287,0,0,0-13,9,16.584,16.584,0,0,0-12-4,16.8,16.8,0,0,0-12,7,19.346,19.346,0,0,0-8-9,19.6,19.6,0,0,0-14-2,23.093,23.093,0,0,0-12,6,23.488,23.488,0,0,0-7,15,15.194,15.194,0,0,0-13,1,13.038,13.038,0,0,0-6,10,41.743,41.743,0,0,0-18,2,27.277,27.277,0,0,0-13,11,17.352,17.352,0,0,0,0,9A17.169,17.169,0,0,0,630,62Z"/></svg>