<svg id="Layer_1" data-name="Layer 1" xmlns="http://www.w3.org/2000/svg" viewBox="0 0 159.919 58.133"><path id="Bush_1_sx" data-name="Bush 1 sx" d="M1.308,58.133H158.581c3.117-.98.015-5.989-1.573-9-5.431-6.4-11.8-10.828-19.6-8.562a1.286,1.286,0,0,1-1.659-.959c-1.326-8.635-9.741-9.48-17.237-8.955-4.313.3-1.5-5.525-5.5-8.525-9.257-6.942-18.215-8.043-27.013-2.662a1.282,1.282,0,0,1-1.708-.307A60.841,60.841,0,0,0,69.007,5.134C55.045-3.331,31.415-1.591,21.625,12.316c-2.294,1.312-4.934-1.741-7.618-2.182-3.325-1.331-6.517-2.35-10-2-.917.171-4.184-.622-4,1.3v47.4A1.3,1.3,0,0,0,1.308,58.133Z"/></svg>