<svg id="Layer_1" data-name="Layer 1" xmlns="http://www.w3.org/2000/svg" viewBox="0 0 260.924 108.877"><path d="M211,8.828a92.937,92.937,0,0,1-39,13,93.006,93.006,0,0,1-43-6C110.378,5.556,85.885-3.434,59.515,1.3,26.35,7.244,0,28.993,0,28.993V99.828s9.047,4.069,16,5a50.163,50.163,0,0,0,22-2l28-9c12.7-1.838,21.9-.033,28,2,6.764,2.255,11.029,5.223,21,8a94.37,94.37,0,0,0,16,3,251.629,251.629,0,0,0,37,2,251.592,251.592,0,0,0,40-4,58.851,58.851,0,0,0,27-14,58.349,58.349,0,0,0,12.757-16.944c19.739-25.666,15.23-55.872,0-66.05C233.622-1.612,212.865,7.94,211,8.828Z"/></svg>