<?xml version="1.0" encoding="utf-8"?>
<!-- Generator: Adobe Illustrator 25.4.1, SVG Export Plug-In . SVG Version: 6.00 Build 0)  -->
<svg version="1.1" id="Layer_1" xmlns="http://www.w3.org/2000/svg" xmlns:xlink="http://www.w3.org/1999/xlink" x="0px" y="0px"
	 viewBox="0 0 768 293.9" style="enable-background:new 0 0 768 293.9;" xml:space="preserve">
<style type="text/css">
	.st0{fill:#231F20;}
</style>
<path class="st0" d="M0,0h768l-1,194c-7,0.3-13.9-1.5-20-5c-4.3,6.4-22.5,31.6-57,40c-43.7,10.6-77.5-14.6-82-18
	c-2,5.6-12.4,32.8-42,47c-16.8,8-35.8,10.1-54,6c-4.8,3.8-55.6,43.4-118,25c-44-13-66.3-46.8-72-56c-5.6,1.2-41.2,7.9-74-16
	c-33-24-37.4-60.3-38-66c-24.7,15-55.1,17.6-82,7c-16.6,16.1-38,26.3-61,29c-34.4,4-67-24-67-15V0z"/>
</svg>
