<svg id="Layer_1" data-name="Layer 1" xmlns="http://www.w3.org/2000/svg" viewBox="0 0 317.206 147.653"><defs><style>.cls-1{fill:#231f20;}</style></defs><path id="cloud-2" class="cls-1" d="M273.674,51.555a37.191,37.191,0,0,1-20-5c-.153.226-39.086-18.123-64.719-31.606C125.211-18.579,48.067,14.19,38.932,18.218c-17.239,7.6-31.6,12.12-37.778,22.522S15.57,83.2,16.048,91.958a47.841,47.841,0,0,0,4.722,18.163c1.938,3.967,4.173,8.4,9.081,11.261,6.771,3.953,14.09,2.281,16.247,1.7,5.845,5.1,25.374,20.417,53.576,19.468,38.455-1.3,59.79-31.729,62-35a36.883,36.883,0,0,0,52,8,62.869,62.869,0,0,0,28,26c4.378,2.008,27.836,12.768,50.444-.195,1.177-.674,24.224-14.386,25.064-39.231C317.943,79.641,300.186,57.632,273.674,51.555Z"/></svg>