<svg id="Layer_1" data-name="Layer 1" xmlns="http://www.w3.org/2000/svg" viewBox="0 0 613.026 329.046"><defs><style>.cls-1{fill:#231f20;}</style></defs><path class="cls-1" d="M570.019,98.042a103.391,103.391,0,0,0-47.7-25.189c-13.2-2.9-29.832-6.853-46,1-16.405,7.968-20.274,22.012-34,22-9.476-.009-11.937-6.707-24-10-13.608-3.715-26.607.407-35.5,4.5-1.355-3.868-12.957-35.263-46.5-46.5-25.324-8.484-53.641-2.291-74,16-.422-1.011-7.511-17.163-25-20-14.9-2.417-25.576,6.737-27,8-1.032-3.077-12.288-34.791-46-45-37.047-11.219-66.048,14.183-67.5,15.5-11.934-.1-88.762,47.363-95.8,108.689-7.4,64.473,25.969,129.587,85.3,167.811,81.527,28.749,148.794,34.372,194.7,34.189,76.736-.306,153.348-17.077,244.714-37.077,19.626-4.3,35.849-8.135,46.983-10.835,5.692-5.148,39.76-37.009,40.3-89.088C613.6,136.374,575.405,102.637,570.019,98.042Z"/></svg>