<svg xmlns="http://www.w3.org/2000/svg" viewBox="0 0 693.492 264.555"><defs><style>.cls-1{isolation:isolate;}.cls-2{fill:#231f20;mix-blend-mode:overlay;}</style></defs><g class="cls-1"><g id="Layer_1" data-name="Layer 1"><path id="cloud-1" class="cls-2" d="M637.14,6.547c-53.786-20.1-100.688,8.384-132,54-9.767,17.988-34.139,29.462-54,20-24.924-9.344-40.094-28.015-67-24-19.292,4.688-30.034,12.817-36.358,19.729-4.4,4.809-8.665,11.22-18.642,21.271-5.222,5.26-9.822,9.314-13,12a150.406,150.406,0,0,1-54.785,25.633,149.912,149.912,0,0,1-49.215,3.367c-22.866-5.373-61.967-11.006-107.014.912a212.871,212.871,0,0,0-44.019,17.086c-15.927,5.866-26.355,9.63-32.967,12-15.053,5.4-17.671,8.788-19.791,11.191-8.719,9.885-11.2,26.772-4.605,40.125,8.242,16.682,26.9,20.247,32.148,21.25,15.95,3.048,22.957-3.443,39.776-4.9,24.02-2.086,30.583,9.341,53.4,13.622,48.187,9.043,66.492-33,111.7-22.34,24.19,5.706,22.647,18.616,44.355,19.663,30.739,1.482,43.56-23.938,72.794-21.3,16.918,1.529,23.183,11,39.231,20.706,50.518,30.563,120.551,16.664,159.648-1.09,42.9-19.48,80.082-57.916,80.019-58-.006-.008-.369.256-.672.478,44.59-27.363,65.938-76.868,54.148-119.563C679.421,29.033,644.492,10.291,637.14,6.547Z"/></g></g></svg>