<svg xmlns="http://www.w3.org/2000/svg" viewBox="0 0 673.6 208.777"><defs><style>.cls-1{isolation:isolate;}.cls-2{fill:#231f20;mix-blend-mode:soft-light;}</style></defs><g class="cls-1"><g id="Layer_1" data-name="Layer 1"><path id="cloud-3" class="cls-2" d="M555.287,22.42c-4.138-3.57-32.849-27.491-73.7-21.446-41.935,6.206-62.576,38.951-65.3,43.446-2.006,5.606-12.384,32.757-42,47-24.4,11.733-47.013,7.572-54,6-14.336-49.146-57.907-81.828-103.7-80.446-53.1,1.6-82.589,48.208-84.8,51.829a133.667,133.667,0,0,0-18.5,21.617,63.524,63.524,0,0,0-29-1c-24.383,5.123-33.024,23.613-52,35-13.544,8.128-53.395,45.213-18,62,45.416,21.54,88.276,1.76,94-1,67.939,16.047,95.73,15.874,108,12a160.96,160.96,0,0,1,25-6,162.98,162.98,0,0,1,25-2,180.471,180.471,0,0,1,30,6c9.748,2.844,13.5,4.872,23,7a149.939,149.939,0,0,0,25,3c25.115.8,47.535-6.23,58-10,3.7.6,9.273,1.573,16,3,18.11,3.841,29.6,7.81,34,9,11.507,3.108,29.977,2.186,60-17a122.061,122.061,0,0,0,42,14,120.063,120.063,0,0,0,22,1c53.184,3.75,98.095-39.436,97.3-90.446-.782-50.36-45.853-91.863-98.3-87.554Z"/></g></g></svg>