<svg xmlns="http://www.w3.org/2000/svg" xmlns:xlink="http://www.w3.org/1999/xlink" viewBox="0 0 129 80"><defs><style>.cls-1{isolation:isolate;}.cls-2{fill:url(#linear-gradient);}.cls-3{fill:url(#linear-gradient-2);}.cls-4,.cls-5{mix-blend-mode:multiply;opacity:0.4;}.cls-4{fill:url(#linear-gradient-3);}.cls-5{fill:url(#linear-gradient-4);}.cls-6{fill:url(#linear-gradient-5);}</style><linearGradient id="linear-gradient" x1="48.5" y1="-3" x2="48.5" y2="80" gradientUnits="userSpaceOnUse"><stop offset="0.04" stop-color="#42252f"/><stop offset="0.61" stop-color="#422128"/><stop offset="0.95" stop-color="#4e252a"/></linearGradient><linearGradient id="linear-gradient-2" x1="16" x2="16" y2="80" xlink:href="#linear-gradient"/><linearGradient id="linear-gradient-3" x1="16" y1="32" x2="16" y2="37" xlink:href="#linear-gradient"/><linearGradient id="linear-gradient-4" x1="45.5" y1="15" x2="45.5" y2="20" xlink:href="#linear-gradient"/><linearGradient id="linear-gradient-5" x1="102" y1="64" x2="129" y2="64" xlink:href="#linear-gradient"/></defs><g class="cls-1"><g id="Layer_2" data-name="Layer 2"><g id="Layer_1-2" data-name="Layer 1"><g id="BlockHouse_1" data-name="BlockHouse 1"><polygon class="cls-2" points="69 0 69 41 59 41 59 15 35 15 32 18 32 32 32 37 0 37 0 80 97 80 97 0 69 0"/><polygon class="cls-3" points="32 32 5 32 0 34 0 37 32 37 32 32"/><polygon class="cls-4" points="32 32 5 32 0 34 0 37 32 37 32 32"/><polygon class="cls-5" points="59 15 35 15 32 18 32 20 59 20 59 15"/></g><polygon class="cls-6" points="102 80 102 50 104 48 128 48 129 51 129 80 102 80"/></g></g></g></svg>