<svg id="Layer_1" data-name="Layer 1" xmlns="http://www.w3.org/2000/svg" xmlns:xlink="http://www.w3.org/1999/xlink" viewBox="0 0 223 117.61"><defs><style>.cls-1{fill:url(#linear-gradient);}.cls-2{fill:#594a42;}.cls-3{fill:url(#linear-gradient-2);}.cls-4{fill:url(#linear-gradient-3);}.cls-5{fill:url(#linear-gradient-4);}.cls-6{fill:url(#linear-gradient-5);}</style><linearGradient id="linear-gradient" y1="80.17" x2="34" y2="80.17" gradientUnits="userSpaceOnUse"><stop offset="0.04" stop-color="#42252f"/><stop offset="0.61" stop-color="#422128"/><stop offset="0.95" stop-color="#4e252a"/></linearGradient><linearGradient id="linear-gradient-2" x1="40" y1="85.51" x2="74" y2="85.51" xlink:href="#linear-gradient"/><linearGradient id="linear-gradient-3" x1="82" y1="76.61" x2="137" y2="76.61" gradientUnits="userSpaceOnUse"><stop offset="0.04" stop-color="#42252f"/><stop offset="0.4" stop-color="#422128"/><stop offset="0.95" stop-color="#4e252a"/></linearGradient><linearGradient id="linear-gradient-4" x1="149" y1="62.22" x2="179" y2="62.22" xlink:href="#linear-gradient"/><linearGradient id="linear-gradient-5" x1="189" y1="74.27" x2="223" y2="74.27" xlink:href="#linear-gradient"/></defs><polygon class="cls-1" points="0 117.57 34 117.61 34 42.74 0 42.74 0 117.57"/><polygon class="cls-2" points="31.49 36.85 2.52 36.85 0 42.42 0 42.74 34 42.74 34 42.42 31.49 36.85"/><g id="Building_4" data-name="Building 4"><polygon class="cls-3" points="40 53.54 40 117.57 74 117.57 74 53.5 73.99 53.45 40.02 53.45 40 53.54"/><polygon class="cls-2" points="41.52 47.61 40.02 53.45 73.99 53.45 72.74 47.61 41.52 47.61"/></g><polygon id="Building_3" data-name="Building 3" class="cls-4" points="82 35.61 123 35.61 123 68.61 137 68.61 137 117.57 82.19 117.61 82 35.61"/><g id="Building_2" data-name="Building 2"><polygon class="cls-5" points="149 7.25 149 117.57 179 117.57 179 7.37 178.85 6.87 149.12 6.87 149 7.25"/><polygon class="cls-2" points="151.22 0 149.12 6.87 178.85 6.87 176.89 0 151.22 0"/></g><g id="Building_1" data-name="Building 1"><polygon class="cls-6" points="189 31.25 189 117.57 223 117.61 223 31.25 222.86 30.93 189.14 30.93 189 31.25"/><polygon class="cls-2" points="191.52 25.61 189.14 30.93 222.86 30.93 220.46 25.61 191.52 25.61"/></g></svg>