<svg xmlns="http://www.w3.org/2000/svg" viewBox="0 0 768.205 756.267"><g id="Layer_2" data-name="Layer 2"><g id="Layer_2-2" data-name="Layer 2"><path id="Mask" d="M751.319.267a150.713,150.713,0,0,0-48.263,5l-65.008,23c-34.089,9.429-59.665,7.54-76.827,4-16.974-3.5-28.52-9.194-52.2-12a201.942,201.942,0,0,0-47.279,0,396.515,396.515,0,0,0-40.383,8c-30.639,7.737-34.388,12.854-70.918,24-3.381,1.031-16.733,4.688-43.438,12-18.713,5.124-34,9.284-44,12l-99,27H0v653H768v-653h.063q.071-50.5.142-101A147.718,147.718,0,0,0,751.319.267Z"/></g></g></svg>