<?xml version="1.0" encoding="utf-8"?>
<!-- Generator: Adobe Illustrator 25.4.1, SVG Export Plug-In . SVG Version: 6.00 Build 0)  -->
<svg version="1.1" id="Layer_1" xmlns="http://www.w3.org/2000/svg" xmlns:xlink="http://www.w3.org/1999/xlink" x="0px" y="0px"
	 viewBox="0 0 768 1200" style="enable-background:new 0 0 768 1200;" xml:space="preserve">
<path id="TR-1" d="M731,1c-74.6,6.2-119,18.5-146,29c-16.1,6.2-23.7,8.8-39,14c-46.8,15.8-64,18.3-77,19
	c-11.9,0.7-23.7,0.2-35.5-1.5c-17-1.1-33.9-3.6-50.5-7.5c-16.5-3.9-26.3-7.6-42-13c-17.5-6-54.4-18.2-84-25
	c-19.7-4.5-45.4-10.3-79-11c-27.3-0.6-46.8,2.5-81,8C64.3,18.3,31.9,25.3,0,34v1166h768V0L731,1z"/>
</svg>
