<?xml version="1.0" encoding="utf-8"?>
<!-- Generator: Adobe Illustrator 25.4.1, SVG Export Plug-In . SVG Version: 6.00 Build 0)  -->
<svg version="1.1" id="Layer_1" xmlns="http://www.w3.org/2000/svg" xmlns:xlink="http://www.w3.org/1999/xlink" x="0px" y="0px"
	 viewBox="0 0 768 1200" style="enable-background:new 0 0 768 1200;" xml:space="preserve">
<path id="Mask" d="M751.2,0.3c-16.3-1-32.6,0.7-48.3,5l-65,23c-34.1,9.4-59.7,7.5-76.8,4c-17-3.5-28.5-9.2-52.2-12
	c-15.7-1.9-31.6-1.9-47.3,0c-13.6,2-27.1,4.6-40.4,8c-30.6,7.7-34.4,12.9-70.9,24c-3.4,1-16.7,4.7-43.4,12c-18.7,5.1-34,9.3-44,12
	l-99,27h-164L0,1200h768l-0.1-1096.7h0.1c0-33.7,0.1-67.3,0.1-101C762.5,1.3,756.9,0.6,751.2,0.3z"/>
</svg>
