<svg xmlns="http://www.w3.org/2000/svg" viewBox="0 0 768 727"><g id="Layer_2" data-name="Layer 2"><g id="Layer_2-2" data-name="Layer 2"><g id="Terrain-5"><path id="TR-1" d="M731,1C656.362,7.2,612.039,19.5,585,30c-16.1,6.248-23.731,8.832-39,14-46.75,15.823-64.011,18.253-77,19a178.736,178.736,0,0,1-35.5-1.5A307.2,307.2,0,0,1,383,54c-16.518-3.878-26.26-7.616-42-13-17.5-5.986-54.435-18.21-84-25-19.69-4.522-45.416-10.287-79-11-27.333-.58-46.782,2.464-81,8A948.242,948.242,0,0,0,0,34V727H768V0Z"/></g></g></g></svg>