<svg xmlns="http://www.w3.org/2000/svg" viewBox="0 0 545.914 228.561"><defs><style>.cls-1{isolation:isolate;}.cls-2{fill:#231f20;mix-blend-mode:overlay;}</style></defs><g class="cls-1"><g id="Layer_2" data-name="Layer 2"><g id="Layer_1-2" data-name="Layer 1"><path id="cloud-2" class="cls-2" d="M535.483,148.731c-27.563-67.555-83.088-25.843-126.5-67.5-25.719-28.961-64.948-52.714-104-38-25.547,8.426-41.432,21.881-71,25-54.46,1.574-69.3-54.692-115.5-65.5C75.832-5.779,40.4,4.741,18.269,46.394-19.307,95.562,6.034,175.112,49.488,202.73c22.045,10.166,56.543,22.951,99.8,25.485,27.242,1.595,33.989-2.28,121.215-12.478,88.482-10.345,102.364-8.792,114.976-6.239,33.7,6.822,44.186,17.919,73.977,17.825C510.271,227.051,570.5,195.548,535.483,148.731Z"/></g></g></g></svg>