<?xml version="1.0" encoding="utf-8"?>
<!-- Generator: Adobe Illustrator 25.4.1, SVG Export Plug-In . SVG Version: 6.00 Build 0)  -->
<svg version="1.1" id="Layer_1" xmlns="http://www.w3.org/2000/svg" xmlns:xlink="http://www.w3.org/1999/xlink" x="0px" y="0px"
	 viewBox="0 0 317.2 147.7" style="enable-background:new 0 0 317.2 147.7;" xml:space="preserve">
<style type="text/css">
	.st0{display:none;fill:#231F20;}
</style>
<path id="cloud-2" class="st0" d="M157.7,3.7c-32.6,11.7-56.2,50.7-56.2,50.7c-1.5-5-5-14.5-13.7-22.3C69.1,15.2,43.6,22.3,41,23
	C17.4,30-2.9,55.3,0.3,83.6c3.5,30.9,32.5,44.7,34,45.4c7.2,4.4,30.5,17.4,61.6,13.3c37.3-4.9,58.6-30.8,63.1-36.5
	c12.1,17.2,35.5,21.1,52.4,8.7c0.2-0.1,0.4-0.3,0.5-0.4c6.5,11.8,16.5,21.3,28.5,27.1c4.5,2.1,28.3,13.3,51.3-0.2
	c12.8-7.5,25.1-22.6,25.5-40.9c0.5-24.9-21.4-45.9-40.9-50.3c-16.1-3.7-36.6-3-36.6-3s-5.7-16-12.6-26.5
	C215,1.8,181.7-4.9,157.7,3.7z"/>
<path d="M216.7,30.8c-15.9,0.8-27.1,5.1-29.6,6.1c-3,1.2-5.4,2.3-7,3.2c-1.2-5.2-5.1-19.2-17.9-29.5C147-1.6,129.5,0,122.4,0
	C87.2,0,58.2,22,54.7,50.3c-3.3-0.6-6.7-1-10.3-1C20,49.3,0.1,65.7,0.1,85.8c0,20.2,19.8,36.5,44.3,36.5c5.6,0,10.9-0.8,15.8-2.4
	c9.1,8,28.3,22.6,56.3,27.6c52.2,9.3,91.7-22.4,98-27.6c8.6,3.5,36.4,13.4,64.6,2.1c7.7-3.1,22.8-9.1,30.2-24.5
	c1.7-3.6,4.4-9.1,3.9-16.1C311.8,58,277.7,44.2,267.6,40c-8.7-3.5-16.3-5.3-20-6.1C240.1,32.3,230,30.1,216.7,30.8z"/>
</svg>
