<?xml version="1.0" encoding="utf-8"?>
<!-- Generator: Adobe Illustrator 25.4.1, SVG Export Plug-In . SVG Version: 6.00 Build 0)  -->
<svg version="1.1" id="Layer_1" xmlns="http://www.w3.org/2000/svg" xmlns:xlink="http://www.w3.org/1999/xlink" x="0px" y="0px"
	 viewBox="0 0 198.5 85" style="enable-background:new 0 0 198.5 85;" xml:space="preserve">
<style type="text/css">
	.st0{fill:#231F20;}
</style>
<path class="st0" d="M15.2,85l167-1c10.8-3,17.6-13.5,16-24c-1.7-11.4-12.9-19.8-25-18c-0.1-1.8-1.1-12.2-10-19
	c-8-6.2-19.4-6.9-29-2C126,7.4,111-0.7,95.2,0c-16.7,0.8-31.6,11.3-38,27c-1.8-0.6-13.5-3.9-25,3c-10.6,6.4-13.5,17-14,19
	c-9,0.2-16.6,6.7-18,15C-1.4,73.4,5.1,83,15.2,85z"/>
</svg>
